<svg width="100" height="100" viewBox="0 0 100 100" fill="none" xmlns="http://www.w3.org/2000/svg">
  <path d="M66.7159 84.2307V75.0544C66.7159 73.8046 67.1839 72.6001 68.0278 71.6783L77.3762 61.466C79.0639 59.6223 80 57.2134 80 54.7138V29.1435C80 28.3144 79.8187 27.4792 79.312 26.8229C77.8897 24.9807 75.367 23.4421 72.6606 26.6985C72.0539 27.4286 71.8081 28.3843 71.8081 29.3336V41.8282C71.8081 43.2648 71.1902 44.632 70.1118 45.5813L67.3119 48.0458M52.3247 84.2307V70.2779C52.3247 64.5313 54.7966 59.0624 59.1101 55.2654L67.3119 48.0458M67.3119 48.0458C70.0468 48.1613 74.8094 49.4662 73.7705 53.6593C73.5747 54.4495 73.0225 55.0922 72.3807 55.593L62.7306 63.1229" stroke="#692C0F" stroke-width="3" />
  <path d="M33.2841 84.2307V75.0544C33.2841 73.8046 32.8161 72.6001 31.9722 71.6783L22.6238 61.466C20.9361 59.6223 20 57.2134 20 54.7138V29.1435C20 28.3144 20.1813 27.4792 20.688 26.8229C22.1103 24.9807 24.633 23.4421 27.3394 26.6985C27.9461 27.4286 28.1919 28.3843 28.1919 29.3336V41.8282C28.1919 43.2648 28.8098 44.632 29.8882 45.5813L32.6881 48.0458M47.6753 84.2307V70.2779C47.6753 64.5313 45.2034 59.0624 40.8899 55.2654L32.6881 48.0458M32.6881 48.0458C29.9532 48.1613 25.1906 49.4662 26.2295 53.6593C26.4253 54.4495 26.9775 55.0922 27.6193 55.593L37.2694 63.1229" stroke="#692C0F" stroke-width="3" />
  <path d="M49.9026 54.6821C48.96 49.2665 50.7612 44.1201 50.7166 38.7301C50.6888 35.3743 50.391 31.9638 50.391 28.6293" stroke="#B67C00" stroke-width="3" stroke-linecap="round" />
  <path d="M48.9258 49.0005C45.2997 48.7631 43.4623 47.5865 41.636 44.8124C40.827 43.5834 40.3813 42.267 39.8452 40.9476C39.7164 40.6305 39.4835 40.27 39.4835 39.9236C39.4835 39.5852 41.2188 40.1051 41.5908 40.1315C43.7113 40.2819 45.4796 41.0403 47.0627 42.2949C48.3597 43.3228 50.0654 44.6323 50.0654 46.229" stroke="#B67C00" stroke-width="3" stroke-linecap="round" />
  <path d="M50.2282 45.1203C50.3179 44.7001 50.7985 44.3903 51.0965 44.0732C51.5431 43.598 51.7768 43.0048 52.227 42.5258C53.5307 41.1386 55.7136 39.7596 57.8798 39.7157C58.9004 39.695 59.8652 39.7719 60.8735 39.8466C62.0231 39.9317 61.6374 40.7384 61.1267 41.4556C59.2679 44.0663 58.4145 47.1452 55.1122 48.7849C53.6128 49.5294 51.742 49.4162 50.0654 49.4162" stroke="#B67C00" stroke-width="3" stroke-linecap="round" />
  <path d="M50.0654 38.1912C48.3465 38.1912 46.9018 37.9669 45.2809 37.429C43.3246 36.7798 42.3197 35.8896 41.437 34.3033C40.7541 33.0761 40.3834 31.761 39.8452 30.4923C39.3517 29.329 39.5526 28.9425 41.2742 29.0758C42.839 29.1968 45.3244 29.6953 46.4838 30.5924C47.3344 31.2506 48.4851 32.329 48.9981 33.2023C49.2942 33.7064 49.5724 34.1569 49.776 34.6959C49.9251 35.0909 49.8823 35.5409 50.2282 35.8353" stroke="#B67C00" stroke-width="3" stroke-linecap="round" />
  <path d="M50.2281 35.4197C50.8632 34.7711 50.9347 33.9502 51.2411 33.1871C51.8601 31.6456 52.696 31.0249 54.4338 30.4848C55.9471 30.0145 57.51 29.934 59.0284 29.5301C59.3132 29.4544 60.2581 29.1041 60.4845 29.4147C61.0153 30.1427 60.6505 31.1937 60.3217 31.9245C59.8001 33.0838 59.5604 34.3904 58.4314 35.2735C56.2875 36.9504 53.3053 38.0527 50.3909 38.0527" stroke="#B67C00" stroke-width="3" stroke-linecap="round" />
  <path d="M50.0654 28.768C48.067 27.0669 46.8516 25.5593 46.3572 23.2094C45.956 21.3028 46.3513 19.6767 47.135 17.851C47.4125 17.2044 49.4918 14.1116 50.391 15.2488C51.4734 16.6178 53.3196 17.8061 53.9726 19.3754C54.3435 20.2669 54.2982 21.1554 54.2982 22.0854C54.2982 22.7102 54.4619 23.5171 54.0992 24.0871C53.0337 25.7615 50.5538 27.0324 50.5538 29.0451" stroke="#B67C00" stroke-width="3" stroke-linecap="round" />
</svg>