<svg width="100" height="100" viewBox="0 0 100 100" fill="none" xmlns="http://www.w3.org/2000/svg">
  <circle cx="50" cy="50" r="36.5" stroke="#692C0F" stroke-width="3" />
  <path d="M19.9 70.7668L78.2334 28.5334" stroke="#692C0F" stroke-width="3" />
  <path d="M44.749 30.365V42.722C44.749 43.273 44.6189 43.8163 44.3693 44.3075L33.6879 65.3273C31.4906 69.6515 34.6322 74.7719 39.4827 74.7719H60.561C65.3978 74.7719 68.5403 69.6776 66.3698 65.3551L55.7997 44.3052C55.555 43.8178 55.4275 43.28 55.4275 42.7346V30.4088C55.4275 30.3818 55.4344 30.3553 55.4476 30.3318C56.6236 28.2268 55.1019 25.6335 52.6907 25.6335H47.6738C45.2957 25.6335 43.7217 28.1026 44.7255 30.2585C44.741 30.2919 44.749 30.3282 44.749 30.365Z" stroke="#B67C00" stroke-width="3" />
  <path d="M46.1257 30.0391H54.0502" stroke="#B67C00" stroke-width="3" />
</svg>