<svg width="100" height="100" viewBox="0 0 100 100" fill="none" xmlns="http://www.w3.org/2000/svg">
  <path d="M28.9263 41.333C27.9868 60.2413 44.3047 66.7789 52.4768 67.0236C77.9618 29.3245 46.36 14.9574 27.9606 13C35.3595 19.9291 29.3057 33.6993 28.9263 41.333Z" stroke="#B67C00" stroke-width="3" />
  <path d="M28.9883 13.2936C33.0498 15.3488 41.7014 21.1329 43.8154 27.8271C46.3111 35.0205 51.4198 52.5488 51.8896 65.1151" stroke="#B67C00" stroke-width="3" />
  <path d="M41.6134 53.3706L50.128 56.4535L54.2385 51.1686" stroke="#B67C00" stroke-width="3" />
  <path d="M38.3836 40.0115L48.3663 45.0028L53.798 36.7819" stroke="#B67C00" stroke-width="3" />
  <path d="M39.7049 29.1483L45.2835 32.5248L49.2471 26.5059" stroke="#B67C00" stroke-width="3" />
  <path d="M18.7969 61.7389C12.3376 64.9196 5.08234 71.4279 14.5396 78.4745C20.1182 82.631 61.5167 95.9441 87.4159 75.098C90.4988 72.1619 93.3468 65.3796 80.0758 61.7389" stroke="#692C0F" stroke-width="3" />
  <path d="M30.3095 65.5553C24.4374 67.1701 15.7172 71.2513 27.8138 74.6571C36.5242 76.3209 57.6443 78.6502 72.442 74.6571C76.4057 72.8465 80.986 68.4914 67.5975 65.5553" stroke="#692C0F" stroke-width="3" />
</svg>